<?xml version="1.0" encoding="UTF-8"?>
<svg
   xmlns="http://www.w3.org/2000/svg"
   width="26.729929mm"
   height="35.887512mm"
   viewBox="0 0 101.02651 135.63592"
   version="1.1">
    <path style="color:#000000" d="m 22.130859,67.67627 v 4.02344 h 25.630856 c 2.83688,-1.7101 5.91738,-3.07074 9.18164,-4.02344 z m 0,10.00391 v 4.02343 h 14.613282 c 1.050777,-1.41934 2.20137,-2.76248 3.441406,-4.02343 z m 0,9.99414 v 4.03125 h 9.34961 c 0.473608,-1.38058 1.021398,-2.72741 1.65039,-4.03125 z m 1.71e-4,-29.99961 v 4.03051 h 44.948325 v -4.03051 z m 0,-9.99508 v 4.02313 h 44.948325 v -4.02313 z m 0,-10.00246 V 41.7003 H 67.079355 V 37.67717 Z M 32.790477,0 c -0.58071,0 -1.117917,0.16403 -1.542815,0.47244 -0.424894,0.30841 -0.745568,0.80007 -0.745568,1.37303 v 3.82382 h -4.665355 c -0.82504,0 -1.585606,0.24076 -2.170276,0.66437 -0.584671,0.42363 -1.011319,1.07287 -1.011319,1.82333 v 10.48966 c 0,0.75046 0.426648,1.39971 1.011319,1.82333 0.58467,0.42363 1.345236,0.65699 2.170276,0.65699 h 36.149116 c 0.82504,0 1.58514,-0.23354 2.17027,-0.65699 0.58514,-0.42346 1.01132,-1.07239 1.01132,-1.82333 V 8.15699 c 0,-0.75093 -0.42618,-1.39987 -1.01132,-1.82333 -0.58513,-0.42346 -1.34523,-0.66437 -2.17027,-0.66437 h -4.66536 V 1.84547 c 0,-0.57369 -0.32761,-1.06486 -0.75295,-1.37303 C 56.142225,0.16426 55.605435,0 55.024735,0 Z m 0,1.32874 h 22.234258 c 0.32156,0 0.60385,0.10273 0.76771,0.22144 0.16388,0.11872 0.1993,0.21525 0.1993,0.2953 v 5.15994 h 5.99409 c 0.56635,0 1.06425,0.17185 1.3878,0.406 0.32352,0.23414 0.45767,0.48837 0.45767,0.74557 v 10.48967 c 0,0.25719 -0.13413,0.51142 -0.45767,0.74557 -0.32353,0.23414 -0.82145,0.406 -1.3878,0.406 H 25.836724 c -0.566339,0 -1.064863,-0.172 -1.387797,-0.406 -0.322923,-0.23399 -0.457674,-0.4879 -0.457674,-0.74557 V 8.15699 c 0,-0.25768 0.13474,-0.51158 0.457674,-0.74557 0.322923,-0.23399 0.821458,-0.406 1.387797,-0.406 h 5.994093 V 1.84548 c 0,-0.0808 0.03628,-0.17681 0.199294,-0.2953 0.163249,-0.11845 0.438803,-0.22144 0.760366,-0.22144 z m 35.247918,70.16503 a 32.987381,32.071067 0 0 0 -32.985591,32.0711 32.987381,32.071067 0 0 0 32.985591,32.07105 32.987381,32.071067 0 0 0 32.988115,-32.07105 32.987381,32.071067 0 0 0 -32.988115,-32.0711 z M 55.347785,84.8609 h 25.38123 v 4.25944 h -20.09452 l 11.40026,14.43197 -11.40026,14.4571 h 20.09452 v 4.25938 h -25.38123 v -4.25938 l 11.3752,-14.4571 -11.3752,-14.43197 z M 16.638672,10.42237 C 7.464848,10.42237 0,17.89503 0,27.06885 v 80.80273 c 0,9.17386 7.464848,16.63868 16.638672,16.63868 h 19.4375 c -1.148845,-1.65402 -2.157726,-3.40678 -3.027344,-5.23438 H 16.638672 c -6.364691,0 -11.404297,-5.03957 -11.404297,-11.4043 V 27.06885 c 0,-6.36469 5.039606,-11.41211 11.404297,-11.41211 h 3.275391 v -5.23437 z m 51.269533,0 v 5.23437 h 3.27539 c 6.36469,0 11.4043,5.04742 11.4043,11.41211 v 41.79492 c 1.81757,0.72107 3.56784,1.56802 5.23437,2.53906 V 27.06885 c 0,-9.17382 -7.46485,-16.64649 -16.63867,-16.64648 z"/>
</svg>
