<?xml version="1.0" encoding="UTF-8"?>
<svg
   xmlns="http://www.w3.org/2000/svg"
   width="93.051224mm"
   height="135.46667mm"
   viewBox="0 0 93.051224 135.46667"
   version="1.1">
    <path style="color:#000000" d="m 11.562695,-1.8411799e-6 c -1.560155,0 -3.9973572,1.3979300411799 -1.221068,4.2986700411799 6.20619,6.4843698 9.721542,11.0263998 11.683608,14.2821998 1.219273,2.02323 2.336987,3.8481 3.989763,3.8481 h 19.435861 2.149639 19.435365 c 1.652775,0 2.770978,-1.82487 3.990256,-3.8481 1.962054,-3.2558 5.477423,-7.79783 11.683596,-14.2821998 C 85.486014,1.3979282 83.048317,-1.8411799e-6 81.488167,-1.8411799e-6 H 47.600498 45.450859 Z M 11.631815,13.337548 C 5.1880525,13.337548 0,18.524948 0,24.968708 v 98.866142 c 0,6.44376 5.1880525,11.63182 11.631818,11.63182 h 69.787587 c 6.443763,0 11.631821,-5.18806 11.631821,-11.63182 V 24.968708 c 0,-6.44376 -5.188058,-11.63116 -11.631821,-11.63116 h -0.498261 c -3.003543,3.68242 -5.047067,6.618 -6.419863,8.9788 -1.39222,2.39419 -2.668774,4.55399 -4.555999,4.55399 H 47.753069 45.298165 23.105936 c -1.887209,0 -3.163771,-2.1598 -4.555989,-4.55399 -1.372812,-2.36081 -3.416297,-5.29636 -6.419859,-8.9788 z m 10.351686,35.2685 H 71.06771 v 10.9732 H 37.938074 L 56.802097,80.090468 37.938074,100.6441 h 33.129639 v 10.97321 H 21.983504 V 100.6441 L 40.800476,80.090468 21.983504,59.536838 Z"/>
</svg>
